<?xml version="1.0" encoding="utf-8"?>
<!-- Generator: Adobe Illustrator 24.0.1, SVG Export Plug-In . SVG Version: 6.00 Build 0)  -->
<svg version="1.1" id="Camada_1" xmlns="http://www.w3.org/2000/svg" xmlns:xlink="http://www.w3.org/1999/xlink" x="0px" y="0px"
	 viewBox="0 0 423 423" style="enable-background:new 0 0 423 423;" xml:space="preserve">
<style type="text/css">
	.st0{fill:#FFFFFF;}
</style>
<path class="st0" d="M9.08,363.85c3.49-11.64,12.65-18.94,20.76-27.02c80.37-80.09,160.76-160.16,241.17-240.2
	c1.01-1.01,2.38-1.66,3.87-2.67c-2.41-1.51-3.9-1.06-5.31-1.06c-51.21-0.03-102.42-0.01-153.63-0.03
	c-15.82-0.01-27.96-8.95-32.47-23.78c-0.9-2.97-1.1-6.01-1.11-9.07c-0.04-7.45-0.07-14.9,0-22.35
	c0.15-16.14,11.61-28.13,27.75-29.09c2.52-0.15,5.05-0.25,7.57-0.25c88.59-0.01,177.18-0.02,265.76,0c5.44,0,10.97-0.18,16.13,1.91
	c11.77,4.76,17,14.14,18.13,26.29c0.07,0.79,0.03,1.6,0.03,2.39c0,90.32,0,180.63,0,270.95c0,13.04-5.19,23.11-16.89,29.41
	c-4.31,2.32-8.98,3.13-13.84,3.12c-7.05-0.02-14.1,0-21.15-0.01c-20.19-0.02-34.06-13.82-34.07-34
	c-0.03-50.55-0.01-101.09-0.01-151.64c0-1.41,0-2.82,0-4.22c-0.29-0.18-0.59-0.36-0.88-0.54c-1.29,1.43-2.52,2.91-3.87,4.27
	c-80.1,80.36-160.21,160.71-240.32,241.05c-8.34,8.36-15.89,17.92-28.93,19.22c-1.6,0-3.19,0-4.79,0c-7.26-2.32-14.17-5.12-19.51-11
	c-8.78-9.66-20.02-17.33-24.39-30.51C9.08,371.3,9.08,367.57,9.08,363.85z"/>
</svg>
